<svg width="56" height="56" viewBox="0 0 56 56" fill="none" xmlns="http://www.w3.org/2000/svg">
<g id="x-close">
<path id="Solid" d="M43.6498 15.6499C44.561 14.7387 44.561 13.2613 43.6498 12.35C42.7385 11.4388 41.2611 11.4388 40.3499 12.35L27.9998 24.7001L15.6498 12.35C14.7385 11.4388 13.2611 11.4388 12.3499 12.35C11.4387 13.2613 11.4387 14.7387 12.3499 15.6499L24.7 28L12.3499 40.35C11.4387 41.2613 11.4387 42.7387 12.3499 43.6499C13.2611 44.5611 14.7385 44.5611 15.6498 43.6499L27.9998 31.2998L40.3499 43.6499C41.2611 44.5611 42.7385 44.5611 43.6498 43.6499C44.561 42.7387 44.561 41.2613 43.6498 40.35L31.2997 28L43.6498 15.6499Z" fill="black"/>
</g>
</svg>
