<svg width="158" height="142" viewBox="0 0 158 142" fill="none" xmlns="http://www.w3.org/2000/svg">
<g filter="url(#filter0_ddddd_7_42)">
<path d="M118.193 79.762C118.468 77.554 118.675 75.346 118.675 73C118.675 70.654 118.468 68.446 118.193 66.238L132.726 54.853C134.035 53.818 134.379 51.955 133.553 50.437L119.777 26.563C118.95 25.045 117.091 24.493 115.575 25.045L98.4243 31.945C94.8426 29.185 90.9853 26.908 86.7836 25.183L84.1662 6.898C83.9596 5.242 82.5131 4 80.7911 4H53.2393C51.5173 4 50.0708 5.242 49.8642 6.898L47.2468 25.183C43.0451 26.908 39.1879 29.254 35.6061 31.945L18.4551 25.045C16.8709 24.424 15.08 25.045 14.2535 26.563L0.477553 50.437C-0.417881 51.955 -0.00460324 53.818 1.30411 54.853L15.8377 66.238C15.5622 68.446 15.3555 70.723 15.3555 73C15.3555 75.277 15.5622 77.554 15.8377 79.762L1.30411 91.147C-0.00460324 92.182 -0.349002 94.045 0.477553 95.563L14.2535 119.437C15.08 120.955 16.9398 121.507 18.4551 120.955L35.6061 114.055C39.1879 116.815 43.0451 119.092 47.2468 120.817L49.8642 139.102C50.0708 140.758 51.5173 142 53.2393 142H80.7911C82.5131 142 83.9596 140.758 84.1662 139.102L86.7836 120.817C90.9853 119.092 94.8426 116.746 98.4243 114.055L115.575 120.955C117.16 121.576 118.95 120.955 119.777 119.437L133.553 95.563C134.379 94.045 134.035 92.182 132.726 91.147L118.193 79.762ZM67.0152 97.15C53.7215 97.15 42.9074 86.317 42.9074 73C42.9074 59.683 53.7215 48.85 67.0152 48.85C80.309 48.85 91.1231 59.683 91.1231 73C91.1231 86.317 80.309 97.15 67.0152 97.15Z" fill="url(#paint0_linear_7_42)"/>
</g>
<defs>
<filter id="filter0_ddddd_7_42" x="-24" y="0" width="182" height="227" filterUnits="userSpaceOnUse" color-interpolation-filters="sRGB">
<feFlood flood-opacity="0" result="BackgroundImageFix"/>
<feColorMatrix in="SourceAlpha" type="matrix" values="0 0 0 0 0 0 0 0 0 0 0 0 0 0 0 0 0 0 127 0" result="hardAlpha"/>
<feOffset/>
<feColorMatrix type="matrix" values="0 0 0 0 0.145098 0 0 0 0 0.054902 0 0 0 0 0.145098 0 0 0 0.1 0"/>
<feBlend mode="normal" in2="BackgroundImageFix" result="effect1_dropShadow_7_42"/>
<feColorMatrix in="SourceAlpha" type="matrix" values="0 0 0 0 0 0 0 0 0 0 0 0 0 0 0 0 0 0 127 0" result="hardAlpha"/>
<feOffset dy="4"/>
<feGaussianBlur stdDeviation="4"/>
<feColorMatrix type="matrix" values="0 0 0 0 0.145098 0 0 0 0 0.054902 0 0 0 0 0.145098 0 0 0 0.1 0"/>
<feBlend mode="normal" in2="effect1_dropShadow_7_42" result="effect2_dropShadow_7_42"/>
<feColorMatrix in="SourceAlpha" type="matrix" values="0 0 0 0 0 0 0 0 0 0 0 0 0 0 0 0 0 0 127 0" result="hardAlpha"/>
<feOffset dy="15"/>
<feGaussianBlur stdDeviation="7.5"/>
<feColorMatrix type="matrix" values="0 0 0 0 0.145098 0 0 0 0 0.054902 0 0 0 0 0.145098 0 0 0 0.09 0"/>
<feBlend mode="normal" in2="effect2_dropShadow_7_42" result="effect3_dropShadow_7_42"/>
<feColorMatrix in="SourceAlpha" type="matrix" values="0 0 0 0 0 0 0 0 0 0 0 0 0 0 0 0 0 0 127 0" result="hardAlpha"/>
<feOffset dy="34"/>
<feGaussianBlur stdDeviation="10"/>
<feColorMatrix type="matrix" values="0 0 0 0 0.145098 0 0 0 0 0.054902 0 0 0 0 0.145098 0 0 0 0.05 0"/>
<feBlend mode="normal" in2="effect3_dropShadow_7_42" result="effect4_dropShadow_7_42"/>
<feColorMatrix in="SourceAlpha" type="matrix" values="0 0 0 0 0 0 0 0 0 0 0 0 0 0 0 0 0 0 127 0" result="hardAlpha"/>
<feOffset dy="61"/>
<feGaussianBlur stdDeviation="12"/>
<feColorMatrix type="matrix" values="0 0 0 0 0.145098 0 0 0 0 0.054902 0 0 0 0 0.145098 0 0 0 0.01 0"/>
<feBlend mode="normal" in2="effect4_dropShadow_7_42" result="effect5_dropShadow_7_42"/>
<feBlend mode="normal" in="SourceGraphic" in2="effect5_dropShadow_7_42" result="shape"/>
</filter>
<linearGradient id="paint0_linear_7_42" x1="67" y1="4" x2="67" y2="142" gradientUnits="userSpaceOnUse">
<stop stop-color="#242424"/>
<stop offset="1" stop-color="#272727" stop-opacity="0.5"/>
</linearGradient>
</defs>
</svg>
