<svg width="106" height="57" viewBox="0 0 106 57" fill="none" xmlns="http://www.w3.org/2000/svg">
<g id="Group 1261152794">
<g id="g70">
<path id="path72" d="M54.8723 20.6267L49.8184 36.3815H23.1116L21.5528 41.2452L16.519 57H0L5.03383 41.2452L6.59157 36.3815L8.96573 28.9813C10.5635 24.0018 15.1706 20.6267 20.3717 20.6267H54.8723Z" fill="black"/>
</g>
<g id="g74">
<path id="path76" d="M105.231 0.00926971L92.3451 40.2757C89.1555 50.2427 79.9363 57 69.5281 57H21.9736L27.0075 41.2452H66.7762C71.9794 41.2452 76.5885 37.867 78.1843 32.8855L88.7107 0.00926971H105.231Z" fill="black"/>
</g>
<g id="g78">
<path id="path80" d="M83.2771 0.0162277L78.2233 15.7711L76.6846 20.6337L74.3114 28.0349C72.7146 33.0144 68.1065 36.3895 62.9054 36.3895H55.271L60.3048 20.6337L61.8636 15.7711L66.8974 0.0162277H83.2771Z" fill="black"/>
</g>
<g id="g82">
<path id="path84" d="M61.4663 -1.90735e-06L56.4124 15.7548H13.1855L15.5597 8.35461C17.1575 3.3751 21.7646 -1.90735e-06 26.9657 -1.90735e-06H61.4663Z" fill="black"/>
</g>
</g>
</svg>
