<svg width="888" height="481" viewBox="0 0 888 481" fill="none" xmlns="http://www.w3.org/2000/svg">
<path d="M463.045 174.06L420.397 307.009H195.029L181.876 348.051L139.397 481H0L42.4785 348.051L55.6236 307.009L75.6582 244.562C89.1414 202.542 128.019 174.06 171.909 174.06H463.045Z" fill="black"/>
<path d="M887.999 0.0781555L779.263 339.87C752.347 423.978 674.55 481 586.719 481H185.427L227.905 348.051H563.498C607.405 348.051 646.299 319.545 659.765 277.508L748.594 0.0781555H887.999Z" fill="black"/>
<path d="M702.742 0.137604L660.095 133.086L647.11 174.12L627.084 236.576C613.609 278.596 574.723 307.077 530.833 307.077H466.41L508.888 174.12L522.042 133.086L564.52 0.137604H702.742Z" fill="black"/>
<path d="M518.689 -0.000473022L476.041 132.948H111.268L131.302 70.5007C144.785 28.4806 183.663 -0.000473022 227.553 -0.000473022H518.689Z" fill="black"/>
</svg>
