<svg width="888" height="481" viewBox="0 0 888 481" fill="none" xmlns="http://www.w3.org/2000/svg">
<path d="M0.205397 480.85H139.288L181.733 348.006L181.733 348.005L194.886 306.963L194.92 306.859H195.029H420.288L462.839 174.21H171.909C128.084 174.21 89.2645 202.649 75.801 244.607L55.7664 307.055L42.6214 348.097L0.205397 480.85Z" fill="white" stroke="black" stroke-width="0.3"/>
<path d="M779.12 339.824L887.794 0.22818H748.703L659.908 277.553C646.422 319.652 607.471 348.201 563.498 348.201H228.015L185.632 480.85H586.719C674.485 480.85 752.224 423.871 779.12 339.824Z" fill="white" stroke="black" stroke-width="0.3"/>
<path d="M466.615 306.927H530.833C574.658 306.927 613.486 278.489 626.941 236.53L646.967 174.075L646.967 174.074L659.952 133.041L659.952 133.041L702.537 0.287598H564.63L522.185 133.132L522.185 133.132L509.031 174.166L509.031 174.166L466.615 306.927Z" fill="white" stroke="black" stroke-width="0.3"/>
<path d="M111.473 132.798H475.932L518.483 0.149536H227.553C183.728 0.149536 144.908 28.5881 131.445 70.5465L111.473 132.798Z" fill="white" stroke="black" stroke-width="0.3"/>
</svg>
