<svg width="128" height="128" viewBox="0 0 128 128" fill="none" xmlns="http://www.w3.org/2000/svg">
<g id="flag">
<path id="Vector" d="M66.0806 38.1577L111.964 36.7593C114.73 36.6762 116.276 37.5152 117.005 40.1835L118.687 46.3744C119.417 49.0465 118.65 51.2499 116.234 52.6067L76.0093 75.2156C73.5942 76.5763 70.6046 74.3577 69.8865 71.6818L62.543 44.2805C61.8249 41.6046 63.3102 38.2409 66.0806 38.1577Z" fill="#0066FF"/>
<path id="Vector_2" d="M22.9793 24.4117L71.4513 16.4937C74.1838 16.0477 76.7425 17.3857 77.574 20.0313L84.9176 43.4301C85.7491 46.0758 83.9085 48.4191 81.38 49.5529L36.9105 69.4708C34.3858 70.6047 20.2429 24.8577 22.9793 24.4117Z" fill="#00A1FF"/>
<path id="Vector_3" d="M13.4701 15.3901L36.4721 115.395C37.2393 118.041 52.8448 115.263 52.0738 112.61L23.0738 12.6046C22.4388 10.4201 12.6991 12.7407 13.4701 15.3901Z" fill="#A8D0FF"/>
<path id="Vector_4" d="M18.1983 3.99872C19.4052 3.99872 20.6002 4.2365 21.7152 4.69847C22.8302 5.16044 23.8432 5.83756 24.6964 6.69114C25.5497 7.54472 26.2264 8.55804 26.6879 9.67321C27.1494 10.7884 27.3867 11.9835 27.3862 13.1904C27.3852 15.6266 26.4167 17.9626 24.6938 19.6849C22.9708 21.4071 20.6344 22.3746 18.1983 22.3746C15.7621 22.3746 13.4257 21.4071 11.7027 19.6849C9.97977 17.9626 9.01132 15.6266 9.01032 13.1904C9.00982 11.9839 9.24698 10.789 9.70826 9.67408C10.1695 8.55916 10.8459 7.54601 11.6987 6.69248C12.5516 5.83895 13.5641 5.16175 14.6787 4.69955C15.7932 4.23736 16.9917 3.99921 18.1983 3.99872ZM28.1459 103.993H58.7409C62.7698 103.993 64.1191 107.712 66.0164 111.268L68.9266 116.722C70.8239 120.279 68.2538 123.998 64.2211 123.998H22.4048C18.3759 123.998 16.0628 120.279 17.9601 116.722L20.8704 111.268C22.7677 107.712 24.1169 103.993 28.1459 103.993Z" fill="#00A1FF"/>
<path id="Vector_5" d="M50.7359 50.305C53.2303 51.2763 55.173 46.9148 57.7657 46.2345C60.3547 45.5542 64.1909 48.3964 65.8841 46.3214C67.5848 44.2465 64.0321 41.0566 64.1871 38.3807C64.3383 35.7048 68.2311 32.9383 66.7798 30.6857C65.3323 28.4293 61.2013 30.8142 58.703 29.8429C56.2086 28.8715 54.7762 24.3172 52.1872 24.9975C49.5945 25.6779 50.5847 30.3455 48.8877 32.4205C47.1945 34.4992 42.4248 34.4463 42.2698 37.1221C42.1149 39.798 46.8619 40.2969 48.3094 42.5533C49.757 44.8059 48.2339 49.3299 50.7359 50.3012V50.305Z" fill="white"/>
</g>
</svg>
