<svg width="128" height="128" viewBox="0 0 128 128" fill="none" xmlns="http://www.w3.org/2000/svg">
<g id="quality 1">
<path id="Vector" d="M44.6736 86.2669C49.9611 90.1446 57.2971 81.0739 63.8545 81.1079C70.4081 81.1381 77.6572 90.2807 82.9787 86.4559C88.3002 82.6272 81.9431 72.8459 83.9992 66.6211C86.0552 60.4001 96.9893 56.3258 94.9975 50.0858C93.0019 43.8421 81.7315 46.8657 76.4478 42.9842C71.164 39.1064 70.6727 27.4505 64.1191 27.4164C57.5654 27.3862 56.9569 39.0384 51.6354 42.8632C46.3139 46.6881 35.0737 43.5586 33.0176 49.7797C30.9654 56.0007 41.8579 60.1808 43.8534 66.4246C45.8452 72.6683 39.3936 82.3891 44.6774 86.2669H44.6736ZM50.4562 102.179C57.6977 99.6841 61.5452 100.24 63.1099 104.794C64.6784 109.344 60.075 115.055 52.8335 117.546C45.592 120.04 38.8985 119.666 37.8629 116.65C36.8274 113.634 43.2147 104.673 50.4562 102.179ZM30.4703 94.3172C37.3036 94.1169 40.4406 95.6098 40.5653 99.9071C40.6938 104.201 35.2589 107.852 28.4218 108.052C21.5885 108.256 15.9797 106.166 15.8965 103.32C15.8096 100.474 23.6369 94.5213 30.4703 94.3172ZM20.19 78.7533C26.0672 80.1781 28.3915 82.185 27.4958 85.8814C26.6001 89.5739 21.1085 91.4146 15.2351 89.9935C9.35803 88.5686 5.06074 85.4732 5.65412 83.0279C6.2475 80.5788 14.3129 77.3284 20.19 78.7533Z" fill="#00A1FF"/>
<path id="Vector_2" d="M19.4719 60.812C24.5591 64.085 26.0936 66.7458 24.0376 69.9395C21.9815 73.1369 16.1913 73.0764 11.1041 69.8034C6.02073 66.5304 2.97824 62.1991 4.33886 60.0788C5.69948 57.9623 14.3885 57.539 19.4719 60.812ZM20.1674 43.9819C23.5727 47.8824 24.2076 50.4335 21.7548 52.5765C19.3056 54.7195 14.5548 53.2946 11.1495 49.3942C7.7404 45.4937 6.2664 41.2078 7.89158 39.7905C9.51676 38.3732 16.7583 40.0815 20.1674 43.9819ZM26.6568 28.5011C28.229 33.4334 27.7906 36.0261 24.6914 37.0126C21.5885 37.999 17.8014 34.8015 16.2291 29.8693C14.6607 24.9333 15.0159 20.413 17.072 19.7592C19.1242 19.1053 25.0845 23.5651 26.6568 28.5011ZM37.4359 20.6398C36.5363 24.51 35.2324 26.0483 32.7984 25.4851C30.3644 24.9182 29.121 21.3239 30.0205 17.4499C30.92 13.5797 32.9269 10.7375 34.537 11.1117C36.1508 11.4859 38.3354 16.7696 37.4359 20.6398ZM51.1327 18.6291C47.9769 21.0404 45.9888 21.3957 44.4733 19.4115C42.9539 17.4272 44.2843 13.8594 47.444 11.4481C50.6036 9.03298 53.9598 8.12213 54.9651 9.43739C55.9705 10.7527 54.2924 16.214 51.1327 18.6291Z" fill="#A8D0FF"/>
<path id="Vector_3" d="M77.608 102.175C70.3665 99.684 66.519 100.24 64.9543 104.794C63.3896 109.344 67.9892 115.055 75.2307 117.546C82.4722 120.04 89.1657 119.666 90.2013 116.65C91.2407 113.634 84.8495 104.669 77.608 102.175ZM97.594 94.3172C90.7607 94.1168 87.6275 95.6097 87.499 99.907C87.3705 104.201 92.8092 107.852 99.6425 108.052C106.476 108.256 112.085 106.166 112.168 103.32C112.255 100.474 104.431 94.5212 97.594 94.3172ZM107.874 78.7532C101.997 80.1781 99.6727 82.185 100.568 85.8813C101.464 89.5739 106.956 91.4145 112.833 89.9934C118.71 88.5686 123.004 85.4731 122.41 83.0278C121.817 80.5787 113.755 77.3283 107.874 78.7532Z" fill="#00A1FF"/>
<path id="Vector_4" d="M108.592 60.812C103.509 64.085 101.971 66.7458 104.027 69.9395C106.086 73.1369 111.877 73.0764 116.96 69.8034C122.047 66.5304 125.086 62.1991 123.725 60.0788C122.365 57.9623 113.679 57.539 108.592 60.812ZM107.897 43.9819C104.492 47.8824 103.857 50.4335 106.309 52.5765C108.759 54.7195 113.509 53.2946 116.915 49.3942C120.324 45.4937 121.798 41.2078 120.176 39.7905C118.551 38.3732 111.306 40.0815 107.897 43.9819ZM101.407 28.5011C99.839 33.4334 100.274 36.0261 103.373 37.0125C106.48 37.999 110.267 34.8015 111.839 29.8693C113.407 24.9333 113.048 20.413 110.996 19.7592C108.94 19.1053 102.98 23.5651 101.407 28.5011ZM90.6322 20.636C91.5317 24.5062 92.8356 26.0445 95.2696 25.4813C97.7036 24.9144 98.947 21.3201 98.0475 17.4461C97.148 13.5759 95.1411 10.7337 93.531 11.1079C91.9172 11.4821 89.7326 16.7658 90.6322 20.636ZM76.9353 18.6253C80.0949 21.0366 82.0792 21.3919 83.5985 19.4077C85.1141 17.4234 83.7837 13.8556 80.6241 11.4443C77.4644 9.0292 74.1082 8.11834 73.1029 9.43361C72.0975 10.7489 73.7756 16.2102 76.9353 18.6253Z" fill="#A8D0FF"/>
</g>
</svg>
