<svg width="128" height="128" viewBox="0 0 128 128" fill="none" xmlns="http://www.w3.org/2000/svg">
<g id="sticker">
<path id="Vector" d="M63.9981 3.99872C48.0853 3.99872 32.8242 10.3201 21.5721 21.5721C10.32 32.8242 3.9987 48.0853 3.9987 63.9981C3.9987 79.911 10.32 95.172 21.5721 106.424C32.8242 117.676 48.0853 123.998 63.9981 123.998L123.998 63.9981C123.998 48.0853 117.676 32.8242 106.424 21.5721C95.172 10.3201 79.9109 3.99872 63.9981 3.99872Z" fill="#A8D0FF"/>
<path id="Vector_2" d="M63.9981 13.9992C36.3852 13.9992 13.9992 36.3851 13.9992 64.0019C13.9992 91.611 36.3851 113.997 64.0019 113.997C66.0579 114.02 68.0384 113.921 69.9546 113.74L113.8 67.6982C113.925 66.4094 113.993 65.1659 113.993 63.9981C113.993 36.3851 91.6073 13.9992 63.9943 13.9992H63.9981Z" fill="#00A1FF"/>
<path id="Vector_3" d="M81.9129 90.7569C77.0147 94.3474 70.2078 85.9418 64.1342 85.9721C58.0605 86.0061 51.3368 94.4759 46.4084 90.9308C41.4723 87.3818 47.3646 78.3148 45.4635 72.5473C43.5548 66.776 33.4183 63.0041 35.2664 57.2177C37.1184 51.4275 47.5649 54.2319 52.4631 50.6338C57.3575 47.0433 57.8149 36.234 63.8885 36.2037C69.9659 36.1735 70.5291 46.9753 75.4613 50.5242C80.3935 54.0694 90.8098 51.1667 92.7185 56.9342C94.6233 62.7017 84.5245 66.5757 82.6763 72.3621C80.8244 78.1485 86.8073 87.1588 81.9129 90.7569Z" fill="white"/>
<path id="Vector_4" d="M123.998 63.9981L63.9981 123.998C63.9981 108.085 70.3195 92.8236 81.5715 81.5715C92.8236 70.3195 108.085 63.9981 123.998 63.9981Z" fill="#0066FF"/>
</g>
</svg>
