<svg width="264" height="99" viewBox="0 0 264 99" fill="none" xmlns="http://www.w3.org/2000/svg">
<g clip-path="url(#clip0_1859_1399)">
<path d="M91.1048 49.6081C91.1134 45.9113 89.9788 42.3022 87.8563 39.2753C85.7338 36.2485 82.7273 33.9519 79.2488 32.7004C79.5653 31.0869 79.7249 29.4465 79.7253 27.8023C79.7284 22.3598 78.0056 17.0565 74.8046 12.6548C71.6036 8.25319 67.0892 4.97996 61.9106 3.30574C56.732 1.63152 51.1559 1.64256 45.984 3.33726C40.8121 5.03195 36.3107 8.32302 33.1271 12.7373C30.7784 10.9172 27.9005 9.91217 24.9294 9.87439C21.9583 9.83661 19.0557 10.7682 16.6615 12.5279C14.2673 14.2877 12.5118 16.7798 11.6609 19.6267C10.81 22.4737 10.9102 25.5204 11.9461 28.3053C8.45938 29.5762 5.44545 31.8844 3.30975 34.9195C1.17406 37.9545 0.0190385 41.5708 6.10494e-05 45.2819C-0.00961405 48.9915 1.13091 52.6129 3.26461 55.6475C5.39831 58.6821 8.42025 60.9807 11.9144 62.2267C11.6051 63.8394 11.4473 65.4774 11.4431 67.1195C11.4379 72.5557 13.1593 77.8531 16.359 82.2479C19.5587 86.6426 24.0715 89.9077 29.2466 91.5723C34.4217 93.2368 39.9917 93.2149 45.1535 91.5096C50.3153 89.8043 54.8022 86.5037 57.9672 82.0839C60.309 83.9085 63.182 84.9196 66.1504 84.9639C69.1188 85.0082 72.0207 84.0833 74.4159 82.3294C76.8112 80.5754 78.5691 78.0882 79.4231 75.245C80.2771 72.4017 80.1806 69.3575 79.1482 66.5741C82.6368 65.3053 85.6527 62.9978 87.7896 59.9624C89.9265 56.927 91.0817 53.3096 91.0995 49.5975" fill="#B8B8B8"/>
<path d="M35.8174 41.1469L55.754 50.2494L75.876 32.6268C76.1658 31.1727 76.3095 29.6933 76.3049 28.2106C76.3038 23.4104 74.7665 18.7366 71.918 14.873C69.0694 11.0095 65.0591 8.15899 60.4739 6.73869C55.8887 5.31838 50.9693 5.40282 46.4355 6.97966C41.9017 8.55649 37.9916 11.5429 35.2773 15.502L31.9254 32.8386L35.8174 41.1469Z" fill="#B8B8B8"/>
<path d="M15.1812 62.2593C14.8872 63.7361 14.74 65.2385 14.7417 66.7443C14.7418 71.5645 16.287 76.2577 19.1504 80.1351C22.0139 84.0125 26.0448 86.87 30.6516 88.2881C35.2584 89.7062 40.1985 89.6103 44.7468 88.0144C49.2951 86.4186 53.2121 83.4068 55.9229 79.4212L59.243 62.1216L54.8109 53.6492L34.8001 44.5308L15.1812 62.2593Z" fill="#B8B8B8"/>
<path d="M15.0597 27.7604L28.7215 30.9852L31.7133 15.449C29.8551 14.0399 27.5905 13.2707 25.2585 13.2565C22.9266 13.2424 20.6528 13.9839 18.7776 15.3702C16.9024 16.7565 15.5266 18.7129 14.8564 20.9465C14.1862 23.1801 14.2575 25.5707 15.0597 27.7604" fill="#B8B8B8"/>
<path d="M13.8739 31.0117C10.8764 32.0232 8.26863 33.9437 6.41327 36.5061C4.55791 39.0685 3.5472 42.1454 3.52173 45.3089C3.51958 48.3663 4.44805 51.3519 6.18371 53.8689C7.91938 56.3858 10.38 58.3149 13.2385 59.3996L32.4073 42.0735L28.886 34.5542L13.8739 31.0117Z" fill="#B8B8B8"/>
<path d="M59.4287 79.4206C61.2839 80.8225 63.5428 81.5867 65.868 81.5991C68.1933 81.6114 70.4602 80.8713 72.3301 79.4892C74.2001 78.1071 75.5729 76.1573 76.2434 73.9307C76.9139 71.7042 76.8463 69.3205 76.0505 67.1356L62.3993 63.9585L59.4287 79.4206Z" fill="#B8B8B8"/>
<path d="M62.2036 60.3634L77.2316 63.8742C80.2308 62.8654 82.8403 60.9456 84.6961 58.3826C86.5519 55.8196 87.5614 52.7413 87.5838 49.577C87.581 46.5261 86.6507 43.5481 84.9162 41.0381C83.1818 38.5281 80.7251 36.6049 77.8723 35.5234L58.2163 52.733L62.2036 60.3634Z" fill="#B8B8B8"/>
<path d="M127.383 65.8173L129.204 65.6319L129.331 69.3386C125.278 69.9507 121.188 70.2868 117.089 70.3447C112.57 70.3447 109.368 69.0368 107.483 66.4209C105.598 63.8051 104.657 59.7348 104.661 54.2101C104.661 43.2066 109.035 37.703 117.782 37.6995C122.018 37.6995 125.178 38.8821 127.261 41.2473C129.344 43.6125 130.388 47.3192 130.396 52.3673L130.147 55.9469H109.432C109.432 59.4206 110.06 61.9941 111.317 63.6674C112.574 65.3407 114.759 66.1773 117.872 66.1773C120.993 66.1879 124.163 66.0679 127.383 65.8173ZM125.688 52.1979C125.688 48.3465 125.072 45.6265 123.84 44.0379C122.608 42.4493 120.599 41.6533 117.814 41.6498C115.029 41.6498 112.935 42.4864 111.534 44.1597C110.132 45.833 109.41 48.5124 109.368 52.1979H125.688Z" fill="#B8B8B8"/>
<path d="M136.962 70.0958V28.7929H141.669V70.0958H136.962Z" fill="#B8B8B8"/>
<path d="M171.317 47.8028V63.6356C171.317 65.2242 175.225 65.1395 175.225 65.1395L174.987 69.3015C171.678 69.3015 168.94 69.5769 167.298 67.983C163.744 69.5618 159.893 70.3651 156.004 70.3394C153.119 70.3394 150.922 69.5222 149.411 67.8877C147.9 66.2532 147.146 63.9039 147.15 60.8397C147.15 57.7826 147.925 55.5321 149.475 54.0883C151.024 52.6444 153.451 51.7619 156.756 51.4406L166.61 50.5034V47.8028C166.61 45.6847 166.151 44.1561 165.233 43.2171C164.73 42.745 164.137 42.3797 163.489 42.1431C162.841 41.9064 162.152 41.8035 161.463 41.8404H149.093V37.6942H161.151C164.709 37.6942 167.293 38.5114 168.903 40.1459C170.513 41.7803 171.317 44.3327 171.317 47.8028ZM151.974 60.6067C151.974 64.4581 153.563 66.3839 156.74 66.3839C159.606 66.3806 162.451 65.8918 165.154 64.9383L166.594 64.4352V54.0777L157.322 54.9567C155.437 55.1261 154.076 55.6698 153.24 56.5876C152.403 57.5055 151.981 58.8452 151.974 60.6067Z" fill="#B8B8B8"/>
<path d="M189.697 41.9039C185.132 41.9039 182.85 43.4925 182.85 46.6696C182.85 48.1382 183.38 49.1743 184.439 49.7779C185.498 50.3816 187.882 51.01 191.593 51.663C195.32 52.3161 197.957 53.2269 199.504 54.3954C201.05 55.5639 201.825 57.7596 201.828 60.9827C201.828 64.2093 200.792 66.5745 198.72 68.0783C196.648 69.5822 193.624 70.3359 189.649 70.3394C187.054 70.3394 178.391 69.3757 178.391 69.3757L178.646 65.2983C183.623 65.7749 187.219 66.1297 189.649 66.1297C192.08 66.1297 193.928 65.7431 195.204 64.97C196.48 64.1969 197.115 62.8996 197.115 61.078C197.115 59.2564 196.586 58.0226 195.485 57.3713C194.383 56.72 192.011 56.1058 188.331 55.518C184.65 54.9302 182.029 54.0724 180.483 52.9445C178.937 51.8166 178.158 49.7197 178.158 46.6643C178.158 43.609 179.218 41.3691 181.394 39.8864C183.57 38.4037 186.239 37.6889 189.459 37.6889C192.011 37.6889 200.87 38.3402 200.87 38.3402V42.444C196.194 42.2375 192.371 41.9039 189.697 41.9039Z" fill="#B8B8B8"/>
<path d="M224.519 42.4017H214.537V57.4084C214.537 61.0056 214.798 63.3691 215.321 64.4987C215.85 65.6319 217.089 66.1932 219.054 66.1932L224.64 65.8173L224.958 69.7093C222.843 70.1003 220.701 70.3322 218.551 70.4029C215.289 70.4029 213.03 69.6069 211.773 68.0148C210.516 66.4227 209.89 63.3885 209.893 58.9123V42.4017H205.456V38.3243H209.914V28.7188H214.558V38.3243H224.519V42.4017Z" fill="#B8B8B8"/>
<path d="M231.064 34.3158V28.8511H235.771V34.3158H231.064ZM231.064 70.0958V38.3243H235.771V70.0958H231.064Z" fill="#B8B8B8"/>
<path d="M256.163 37.6942C258.514 37.7945 260.856 38.0475 263.174 38.4514L264.678 38.6367L264.492 42.4652C262.032 42.1535 259.558 41.9662 257.079 41.9039C253.521 41.9039 251.104 42.7512 249.83 44.4456C248.556 46.1401 247.917 49.2784 247.913 53.8606C247.913 58.4498 248.51 61.6411 249.703 63.4344C250.896 65.2277 253.385 66.1279 257.169 66.135L264.583 65.5737L264.773 69.4657C261.887 69.9545 258.972 70.2482 256.047 70.3447C251.154 70.3447 247.775 69.088 245.911 66.5745C244.047 64.061 243.116 59.8248 243.116 53.8659C243.116 47.9034 244.12 43.7184 246.129 41.3108C248.137 38.9033 251.482 37.6977 256.163 37.6942Z" fill="#B8B8B8"/>
</g>
<defs>
<clipPath id="clip0_1859_1399">
<rect width="264" height="99" fill="white"/>
</clipPath>
</defs>
</svg>
