<svg width="338" height="99" viewBox="0 0 338 99" fill="none" xmlns="http://www.w3.org/2000/svg">
<path d="M81.6672 67.1799L83.7581 66.7491C85.603 66.2568 86.095 66.0106 86.095 62.3181V33.3316C86.095 29.6391 85.5415 29.3314 83.7581 28.9006L81.6672 28.4698V26.7466H114.999L115.613 38.9935H113.707C112.17 35.6087 111.186 33.824 110.263 32.47C108.295 29.6391 107.004 29.3929 102.761 29.3929C99.6243 29.3929 98.0869 29.7622 97.1644 30.0083V45.7016H98.8249C103.13 45.7016 104.114 45.2093 104.852 43.8554C105.713 42.3168 106.204 41.1475 106.758 39.1781H108.603V55.0561H106.758C106.204 53.1482 105.713 51.9174 104.852 50.1327C104.114 48.5941 103.314 48.2864 98.8249 48.2864H97.1644V60.1025C97.1644 65.5798 97.3489 66.1952 103.314 66.1952C108.234 66.1952 109.218 65.5798 111.247 62.5642C112.354 60.9026 113.523 58.3178 115.122 54.4406H117.089L116.228 68.9031H81.7287L81.6672 67.1799ZM122.255 44.1015C120.841 40.6552 120.164 39.7936 118.627 39.3012L117.458 38.932V37.3319H135.723V38.932L134.063 39.3628C132.771 39.732 132.156 40.3474 132.156 41.8245C132.156 42.686 132.464 43.7323 132.956 45.0862L138.06 59.1179H138.367L143.287 45.0862C143.841 43.6092 144.087 42.563 144.087 41.7014C144.087 40.3474 143.472 39.6705 142.18 39.3628L140.52 38.932V37.3319H151.774V38.932L150.605 39.3012C149.006 39.8551 148.33 40.7782 146.854 44.7785L137.445 68.9031H132.279L122.255 44.1015ZM150.359 52.9636C150.359 42.3783 158.169 36.5318 166.225 36.5318C174.589 36.5318 179.816 40.7167 180.001 51.7328H159.891C160.076 61.7026 163.827 64.4105 170.1 64.4105C173.851 64.4105 176.741 63.3027 179.017 62.1334V64.1643C176.864 66.5029 172.252 69.7031 166.164 69.7031C155.586 69.58 150.359 63.3027 150.359 52.9636ZM159.891 49.3942L170.284 48.8403C170.284 41.5167 169.3 38.8089 165.672 38.8089C162.597 38.8089 160.137 41.7629 159.891 49.3942ZM195.99 41.209C197.712 39.3628 201.217 36.3472 205.276 36.3472C207.859 36.3472 210.011 38.4396 210.011 41.0859C210.011 43.7323 207.92 45.8247 205.276 45.8247C203.369 45.8247 201.648 44.6554 200.971 42.9938C200.602 42.3168 199.803 42.1322 199.249 42.1322C198.142 42.1322 196.851 42.9322 196.051 43.6707V63.3643C196.051 66.1952 196.297 66.5029 198.142 66.8106L200.172 67.2414V68.9031H182.645V67.2414L184.244 66.8106C186.273 66.2568 186.519 65.9491 186.519 63.3643V44.4708C186.519 41.886 186.212 41.7014 184.49 40.5321L182.461 39.1781V37.9473L195.252 36.4703L195.928 36.9626L195.805 41.1475L195.99 41.209ZM211.856 67.2414L213.455 66.8106C215.484 66.2568 215.73 65.9491 215.73 63.3643V44.4708C215.73 41.886 215.423 41.7014 213.701 40.5321L211.672 39.1781V37.9473L224.463 36.4703L225.139 36.9011L225.016 40.7782H225.262C228.46 38.5012 232.458 36.4703 236.885 36.4703C242.051 36.4703 244.818 39.1166 244.818 44.5939V63.3027C244.818 65.9491 245.064 66.2568 247.032 66.7491L248.631 67.1799V68.8415H231.72V67.1799L233.195 66.8106C235.04 66.3183 235.225 66.1337 235.225 63.3027V46.994C235.225 43.3015 233.872 42.1322 231.043 42.1322C228.891 42.1322 226.738 42.6245 225.385 42.9322V63.3643C225.385 66.2568 225.57 66.3798 227.415 66.8722L228.891 67.2414V68.9031H211.979V67.2414H211.856ZM249.8 53.1482C249.8 41.5167 258.04 36.5318 266.219 36.5318C275.013 36.5318 282.7 41.8245 282.7 52.8405C282.7 64.472 274.583 69.58 266.219 69.58C257.425 69.58 249.8 64.2874 249.8 53.1482ZM272.492 53.456C272.492 41.209 270.155 38.8704 265.973 38.8704C262.16 38.8704 259.885 41.6398 259.885 52.102C259.885 64.5336 261.914 67.2414 266.342 67.2414C269.971 67.2414 272.492 65.0875 272.492 53.456ZM287.928 61.2103V40.9013H284.115V39.4243C288.85 37.578 292.478 34.0701 294.2 29.2083H297.644V37.3319H305.7L304.901 40.9013H297.644V60.5949C297.644 63.6104 298.567 64.8413 301.58 64.8413C303.056 64.8413 304.839 64.5336 305.946 64.2874V66.0106C304.47 67.3645 301.457 69.58 296.353 69.58C290.88 69.58 287.928 67.1799 287.928 61.2103ZM307.176 52.9636C307.176 42.3783 314.986 36.5318 323.042 36.5318C331.406 36.5318 336.633 40.7167 336.818 51.7328H316.77C316.954 61.7026 320.705 64.4105 326.978 64.4105C330.729 64.4105 333.62 63.3027 335.895 62.1334V64.1643C333.743 66.5029 329.131 69.7031 323.042 69.7031C312.403 69.58 307.176 63.3027 307.176 52.9636ZM316.708 49.3942L327.101 48.8403C327.101 41.5167 326.117 38.8089 322.489 38.8089C319.414 38.8089 316.954 41.7629 316.708 49.3942Z" fill="#B8B8B8"/>
<path d="M20.0485 31.4846C20.0485 32.2231 19.987 33.454 19.2491 34.254C18.4496 34.9925 17.2197 35.0541 16.4817 35.0541H8.61013C6.33474 35.0541 4.98181 35.0541 4.05936 35.1772C3.56739 35.2387 2.95242 35.4849 2.64493 35.608C2.52194 35.6695 2.52194 35.608 2.58344 35.5464L20.5405 17.2683C20.602 17.2068 20.6635 17.2068 20.602 17.3299C20.479 17.6376 20.233 18.253 20.1715 18.7454C20.0485 19.6685 20.0485 21.0224 20.0485 23.2995V31.4846ZM36.7757 86.7496C34.6848 85.3957 33.5778 83.611 33.1474 82.5032C32.7169 81.457 32.4709 80.2877 32.4709 79.1184C32.4709 74.0104 36.6527 69.8255 41.8184 69.8255C43.3558 69.8255 44.5858 71.0563 44.5858 72.5949C44.5858 73.6411 44.0323 74.5027 43.1713 74.9951C42.8639 75.1797 42.4334 75.3028 42.1259 75.3643C41.8184 75.4258 40.65 75.5489 40.0965 76.0413C39.4815 76.5336 38.9896 77.3337 38.9896 78.1952C38.9896 79.1184 39.3585 79.98 39.9735 80.5954C41.0805 81.7032 42.5564 82.3186 44.1553 82.3186C48.3371 82.3186 51.7194 78.9338 51.7194 74.7489C51.7194 70.9948 49.198 67.6715 45.8772 66.1945C45.3852 65.9483 44.5858 65.7637 43.8478 65.5791C42.9254 65.3944 42.0644 65.2714 42.0029 65.2714C39.42 64.9636 32.9629 62.9328 32.5324 57.2093C32.5324 57.2093 30.626 65.8252 26.8132 68.1639C26.4442 68.3485 25.9522 68.5331 25.3988 68.6562C24.8453 68.7793 24.2303 68.8408 24.0458 68.8408C17.8347 69.2101 11.2545 67.2407 6.70372 62.5635C6.70372 62.5635 3.62888 60.0403 2.02996 52.9629C1.66098 51.2397 0.923021 48.1626 0.492543 45.2701C0.308052 44.2239 0.246555 43.4238 0.185059 42.6853C0.185059 39.6697 2.02996 37.6388 4.36684 37.3311C4.42834 37.3311 4.61283 37.3311 4.73583 37.3311C6.15025 37.3311 16.9122 37.3311 16.9122 37.3311C19.0646 37.3311 20.2945 36.7773 21.094 36.0387C22.1394 35.0541 22.3854 33.6386 22.3854 31.977C22.3854 31.977 22.3854 20.7762 22.3854 19.3608C22.3854 19.2992 22.3854 19.0531 22.3854 18.9915C22.6929 16.7145 24.7223 14.8066 27.7356 14.8066C27.7356 14.8066 28.6581 14.8066 29.2116 14.8066C29.8265 14.8066 30.5645 14.8682 31.241 14.9297C31.7329 14.9913 32.1634 15.1144 32.9014 15.299C36.6527 16.2221 37.4521 20.0377 37.4521 20.0377C37.4521 20.0377 44.5243 21.2686 48.0911 21.884C51.4734 22.4994 59.837 23.0533 61.4359 31.4846C65.1872 51.5474 62.9118 70.9948 62.7273 70.9948C60.083 89.9498 44.3398 89.0267 44.3398 89.0267C40.9575 89.0267 38.4361 87.9189 36.7757 86.7496ZM50.92 46.4394C48.8906 46.2548 47.1686 47.0548 46.5537 48.5934C46.4307 48.9011 46.3077 49.2704 46.3692 49.455C46.4307 49.6396 46.5537 49.7011 46.6767 49.7627C47.4146 50.1319 48.6446 50.3166 50.428 50.5012C52.2114 50.6858 53.4413 50.8089 54.2408 50.6858C54.3638 50.6858 54.4868 50.6243 54.6098 50.4397C54.7328 50.255 54.6713 49.8858 54.6713 49.5781C54.4253 47.8549 52.9493 46.6856 50.92 46.4394Z" fill="#B8B8B8"/>
</svg>
