<svg width="237" height="99" viewBox="0 0 237 99" fill="none" xmlns="http://www.w3.org/2000/svg">
<path d="M191.867 30.03C194.941 30.03 197.325 27.5937 197.325 24.5329C197.325 21.5345 194.941 19.0983 191.867 19.0983C188.856 19.0983 186.347 21.5345 186.347 24.5329C186.284 27.5937 188.856 30.03 191.867 30.03Z" fill="#B8B8B8"/>
<path d="M144.818 33.8403H153.036V38.8376C155.106 35.8392 159.686 33.0907 165.081 33.0907C175.306 33.0907 183.085 41.7736 183.085 52.4554C183.085 63.0748 175.306 71.82 165.081 71.82C159.686 71.82 155.169 69.0716 153.036 66.0732V86.6247H144.818V33.8403ZM163.575 40.5242C156.926 40.5242 152.346 45.7089 152.346 52.4554C152.346 59.1393 156.926 64.3865 163.575 64.3865C170.162 64.3865 174.742 59.2019 174.742 52.4554C174.742 45.7714 170.162 40.5242 163.575 40.5242Z" fill="#B8B8B8"/>
<path d="M202.03 33.8403H210.248V38.9001C212.506 35.1521 216.771 33.0907 221.602 33.0907C230.258 33.0907 235.905 39.2124 235.905 48.6449V71.0705H227.687V50.0192C227.687 44.1473 224.675 40.5868 219.908 40.5868C214.451 40.5868 210.248 44.8345 210.248 52.7676V71.0705H202.03V33.8403Z" fill="#B8B8B8"/>
<path d="M82.2116 33.0907C77.3813 33.0907 73.1155 35.1521 70.8572 38.9001V19.0981H62.6392V71.0706H70.8572V52.7677C70.8572 44.8344 75.0601 40.5866 80.5178 40.5866C85.2854 40.5866 88.2965 44.1474 88.2965 50.0192V71.0706H96.5145V48.645C96.4518 39.2124 90.8685 33.0907 82.2116 33.0907Z" fill="#B8B8B8"/>
<path d="M195.882 33.8405H187.664V71.0707H195.882V33.8405Z" fill="#B8B8B8"/>
<path d="M120.667 71.8201C109.626 71.8201 101.094 63.2623 101.094 52.4555C101.094 41.6486 109.626 33.0908 120.667 33.0908C131.708 33.0908 140.239 41.6486 140.239 52.4555C140.239 63.2623 131.708 71.8201 120.667 71.8201ZM120.667 64.1992C127.254 64.1992 131.896 59.0769 131.896 52.4555C131.896 45.834 127.254 40.7117 120.667 40.7117C114.017 40.7117 109.375 45.834 109.375 52.4555C109.375 59.0769 114.017 64.1992 120.667 64.1992Z" fill="#B8B8B8"/>
<path d="M32.7117 29.0541C32.6492 31.5432 30.8963 35.0901 27.9541 35.0901C26.1385 35.0901 24.6361 33.5966 24.6361 31.7921V31.7299C24.5734 28.8052 23.2589 26.2539 21.193 24.4493C19.6279 23.1426 17.6872 22.2714 15.5587 22.0225C17.3742 20.1557 19.9409 19.0356 22.758 19.0356C26.3263 19.0356 29.5816 21.0891 31.4597 24.076C32.3362 25.5694 32.7744 27.374 32.7117 29.0541Z" fill="#B8B8B8"/>
<path d="M21.0681 29.3029C22.633 31.2942 23.5722 35.09 21.3186 36.9568C19.8786 38.1391 17.8128 37.9524 16.6233 36.5835C14.6826 34.4055 11.9907 33.2855 9.29881 33.2232C7.23294 33.161 5.16705 33.7833 3.41419 34.9656C3.602 32.4143 4.79145 29.863 6.98252 28.0584C9.79963 25.756 13.7436 25.0715 17.1241 26.4405C18.6892 27.0006 20.0664 27.9962 21.0681 29.3029Z" fill="#B8B8B8"/>
<path d="M12.3036 36.8949C14.7451 37.3927 18.0004 39.7573 17.4996 42.6198C17.1866 44.4243 15.4337 45.6067 13.6182 45.2955H13.5556C10.6759 44.8599 7.85879 45.7311 5.79292 47.4112C4.22785 48.6557 2.97581 50.4604 2.41238 52.5138C0.909919 50.3981 0.221292 47.7224 0.659511 44.9222C1.34814 41.3751 3.91484 38.3884 7.42058 37.206C8.98563 36.7082 10.7385 36.5838 12.3036 36.8949Z" fill="#B8B8B8"/>
<path d="M10.4881 48.3443C12.6792 47.1621 16.6857 46.9131 18.1256 49.4022C19.0646 50.9579 18.5012 53.0113 16.9361 53.9448C14.432 55.4381 12.867 57.865 12.3035 60.5407C11.9279 62.5319 12.1157 64.6476 13.0548 66.5768C10.5507 65.9544 8.23437 64.3367 6.85713 61.9098C5.04166 58.7362 5.10425 54.816 6.98233 51.7047C7.85877 50.2735 9.04822 49.0911 10.4881 48.3443Z" fill="#B8B8B8"/>
<path d="M16.4974 58.2385C17.4365 55.936 20.3162 53.198 23.0081 54.1936C24.761 54.816 25.6375 56.7449 25.0114 58.4252C24.0722 61.163 24.448 64.0255 25.7627 66.3902C26.7643 68.1947 28.2667 69.626 30.2075 70.5593C27.8285 71.6793 25.0739 71.9284 22.4447 70.9328C19.0015 69.6881 16.4974 66.6391 15.934 63.0299C15.7462 61.4121 15.934 59.7318 16.4974 58.2385Z" fill="#B8B8B8"/>
<path d="M27.5159 61.9717C26.7021 59.6072 27.1403 55.6868 29.8947 54.6911C31.6476 54.069 33.5257 54.9402 34.1518 56.6824C35.2159 59.3583 37.3444 61.3496 39.9111 62.3452C41.7892 63.0917 43.9803 63.2162 46.0461 62.7185C44.982 65.083 42.9787 67.0121 40.3493 68.0078C36.9062 69.2522 32.9623 68.5055 30.2704 66.0786C29.0184 64.8965 28.0168 63.5273 27.5159 61.9717Z" fill="#B8B8B8"/>
<path d="M38.4085 57.803C36.28 56.4962 34.0264 53.1981 35.5287 50.7092C36.4679 49.1535 38.4712 48.5935 40.0987 49.4647C42.6654 50.8336 45.5451 51.0204 48.1745 50.1492C50.1151 49.4647 51.868 48.22 53.12 46.4778C53.8086 48.9668 53.5583 51.7048 52.1184 54.1317C50.303 57.3051 46.7971 59.2342 43.1663 59.1098C41.4134 59.1098 39.7232 58.6742 38.4085 57.803Z" fill="#B8B8B8"/>
<path d="M44.0428 47.6596C41.5386 48.0331 37.7199 46.9128 37.2192 44.0506C36.8435 42.3082 38.0955 40.5658 39.9111 40.2546H39.9736C42.8533 39.6947 45.1696 37.9523 46.5468 35.65C47.6112 33.9076 48.1119 31.8541 47.9242 29.7384C50.0527 31.1696 51.6802 33.472 52.1184 36.21C52.7445 39.7569 51.3047 43.4906 48.4876 45.7307C47.1729 46.7263 45.6079 47.4731 44.0428 47.6596Z" fill="#B8B8B8"/>
<path d="M41.7892 36.3348C40.099 38.2016 36.4679 39.8195 34.2143 37.9527C32.7744 36.7704 32.5865 34.7169 33.7761 33.2857C35.5915 31.0455 36.2801 28.1831 35.8418 25.5074C35.529 23.5161 34.5898 21.5871 33.0875 20.0314C35.6542 19.7825 38.346 20.5292 40.5372 22.3338C43.3542 24.6362 44.6689 28.432 43.9176 31.9789C43.6046 33.5968 42.8533 35.1525 41.7892 36.3348Z" fill="#B8B8B8"/>
</svg>
