<svg width="235" height="99" viewBox="0 0 235 99" fill="none" xmlns="http://www.w3.org/2000/svg">
<path d="M25.3729 27.0317V45.7752H8.16814V27.0317H0V71.7742H8.16814V53.6394H25.3729V71.7742H33.541V27.0317H25.3729Z" fill="#B8B8B8"/>
<path d="M59.6822 57.3102C59.6822 59.1033 58.9702 60.823 57.703 62.091C56.4357 63.3589 54.7169 64.0712 52.9248 64.0712C51.1326 64.0712 49.4138 63.3589 48.1465 62.091C46.8793 60.823 46.1673 59.1033 46.1673 57.3102V38.1463H38.4194V57.3102C38.4194 61.1556 39.9462 64.8435 42.6638 67.5626C45.3815 70.2817 49.0674 71.8092 52.9108 71.8092C56.7541 71.8092 60.44 70.2817 63.1577 67.5626C65.8753 64.8435 67.4021 61.1556 67.4021 57.3102V38.1463H59.6822V57.3102Z" fill="#B8B8B8"/>
<path d="M117.089 40.1214C117.089 36.1933 119.686 34.948 122.532 34.948C124.825 34.948 127.855 36.6938 129.836 38.812L134.91 32.8298C132.377 29.4022 127.238 27.0318 123.032 27.0318C114.628 27.0318 108.549 31.9569 108.549 40.1214C108.549 55.2691 127.054 50.4641 127.054 58.9409C127.054 61.5556 124.517 63.866 121.611 63.866C117.029 63.866 115.544 61.6237 113.439 59.2532L107.808 65.1113C111.41 69.5359 115.852 71.7822 121.175 71.7822C129.159 71.7822 135.582 66.797 135.582 59.0049C135.582 42.1875 117.077 47.4129 117.077 40.1214" fill="#B8B8B8"/>
<path d="M231.571 64.6263C226.993 64.6263 225.692 62.6442 225.692 59.6091V46.1751H232.808V39.368H225.692V30.3867L217.836 33.9144V61.2788C217.836 68.2781 222.663 71.8057 229.282 71.8057C230.32 71.8246 231.358 71.7415 232.38 71.5575L234.297 64.4981C233.432 64.5582 232.44 64.6183 231.571 64.6183" fill="#B8B8B8"/>
<path d="M89.175 38.3723C85.3371 38.3723 82.6597 39.4854 80.0704 42.0281V27.3008H72.3105V54.5971C72.3105 64.8157 79.6942 71.815 87.9904 71.815C97.1951 71.815 105.291 64.6916 105.291 55.0976C105.291 45.6238 97.8394 38.3763 89.175 38.3763V38.3723ZM89.127 64.0029C87.3857 64.0029 85.6834 63.4862 84.2355 62.5183C82.7876 61.5503 81.6591 60.1745 80.9928 58.5648C80.3264 56.9552 80.152 55.1839 80.4917 53.4751C80.8314 51.7663 81.67 50.1967 82.9013 48.9647C84.1326 47.7327 85.7014 46.8937 87.4093 46.5538C89.1172 46.2139 90.8875 46.3884 92.4963 47.0551C94.1051 47.7219 95.4802 48.851 96.4476 50.2996C97.4151 51.7483 97.9315 53.4514 97.9315 55.1937C97.9315 57.53 97.0039 59.7707 95.3527 61.4227C93.7016 63.0748 91.4621 64.0029 89.127 64.0029Z" fill="#B8B8B8"/>
<path d="M173.433 54.6875C173.433 45.0775 165.353 37.9701 156.133 37.9701C147.836 37.9701 140.453 44.9694 140.453 55.188V82.5003H148.213V67.753C150.798 70.2916 153.479 71.4088 157.313 71.4088C165.978 71.4088 173.429 64.1653 173.429 54.6875H173.433ZM166.086 54.5914C166.086 56.3336 165.569 58.0368 164.602 59.4855C163.634 60.9341 162.259 62.0632 160.65 62.7299C159.042 63.3967 157.271 63.5711 155.563 63.2312C153.856 62.8913 152.287 62.0523 151.055 60.8204C149.824 59.5884 148.986 58.0187 148.646 56.3099C148.306 54.6011 148.481 52.8299 149.147 51.2202C149.813 49.6106 150.942 48.2348 152.39 47.2668C153.838 46.2989 155.54 45.7822 157.281 45.7822C159.616 45.7822 161.856 46.7103 163.507 48.3623C165.158 50.0144 166.086 52.255 166.086 54.5914Z" fill="#B8B8B8"/>
<path d="M198.424 37.8461V30.1261C199.444 29.6496 200.307 28.8931 200.914 27.9445C201.52 26.996 201.845 25.8946 201.85 24.7686V24.5884C201.846 23.0148 201.219 21.5069 200.107 20.3941C198.995 19.2814 197.488 18.6545 195.915 18.6502H195.735C194.162 18.6545 192.655 19.2814 191.543 20.3941C190.431 21.5069 189.804 23.0148 189.8 24.5884V24.7686C189.805 25.8946 190.129 26.996 190.736 27.9445C191.342 28.8931 192.206 29.6496 193.225 30.1261V37.8461C190.294 38.2947 187.533 39.5103 185.221 41.3698L164.035 24.8767C164.185 24.3326 164.266 23.7715 164.275 23.207C164.276 21.882 163.885 20.5864 163.151 19.4839C162.416 18.3814 161.372 17.5215 160.149 17.013C158.926 16.5045 157.58 16.3702 156.281 16.6272C154.982 16.8841 153.788 17.5207 152.851 18.4564C151.913 19.3922 151.274 20.585 151.014 21.8842C150.754 23.1834 150.885 24.5305 151.391 25.7551C151.896 26.9798 152.753 28.0271 153.853 28.7645C154.953 29.5019 156.247 29.8963 157.571 29.8979C158.735 29.8936 159.876 29.5828 160.881 28.997L181.712 45.2218C179.835 48.0539 178.857 51.3864 178.903 54.7839C178.949 58.1813 180.019 61.4858 181.972 64.2656L175.633 70.6081C175.124 70.446 174.594 70.3597 174.06 70.3519C172.971 70.3519 171.908 70.6748 171.003 71.2798C170.098 71.8847 169.392 72.7446 168.976 73.7507C168.559 74.7567 168.45 75.8637 168.663 76.9317C168.875 77.9997 169.399 78.9807 170.169 79.7507C170.938 80.5207 171.919 81.0451 172.986 81.2575C174.054 81.47 175.16 81.3609 176.166 80.9442C177.171 80.5275 178.03 79.8218 178.635 78.9164C179.24 78.011 179.563 76.9465 179.563 75.8576C179.555 75.3233 179.469 74.793 179.306 74.284L185.578 68.0095C187.625 69.5739 190.002 70.6497 192.528 71.1548C195.054 71.6598 197.662 71.5807 200.153 70.9235C202.644 70.2663 204.951 69.0484 206.9 67.3627C208.849 65.677 210.387 63.5682 211.396 61.1971C212.406 58.8261 212.861 56.2556 212.727 53.6817C212.592 51.1079 211.872 48.5989 210.62 46.3462C209.369 44.0934 207.619 42.1566 205.506 40.6834C203.392 39.2103 200.97 38.2398 198.424 37.8461V37.8461ZM195.827 63.2405C194.111 63.2405 192.433 62.7314 191.006 61.7775C189.58 60.8236 188.468 59.4678 187.811 57.8816C187.154 56.2953 186.982 54.5499 187.317 52.8659C187.652 51.182 188.478 49.6352 189.692 48.4211C190.905 47.207 192.451 46.3802 194.134 46.0453C195.817 45.7103 197.562 45.8822 199.147 46.5393C200.732 47.1963 202.088 48.309 203.041 49.7366C203.994 51.1642 204.503 52.8426 204.503 54.5595C204.503 56.8618 203.589 59.0699 201.962 60.6979C200.335 62.3259 198.128 63.2405 195.827 63.2405" fill="#B8B8B8"/>
</svg>
