<svg width="242" height="99" viewBox="0 0 242 99" fill="none" xmlns="http://www.w3.org/2000/svg">
<path d="M72.7794 42.6294H50.6085L69.8085 31.6329L66.001 25.0879L46.7985 36.0844L57.8815 17.0389L51.2851 13.2611L40.1996 32.3018V10.3135H32.5797V32.3042L21.4943 13.2611L14.8954 17.0389L25.9784 36.0796L6.78078 25.0879L2.97083 31.6329L22.1709 42.6294H0V50.1874H22.1685L2.97083 61.184L6.77835 67.729L25.9809 56.7324L14.8954 75.7779L21.4919 79.5557L32.5797 60.5127V82.501H40.1996V60.041L51.4888 79.4354L57.6754 75.8934L46.3838 56.4942L65.9962 67.7266L69.8061 61.1816L50.6085 50.185H72.7769V42.6294H72.7794V42.6294ZM36.3897 56.6819C35.0295 56.6821 33.6825 56.4164 32.4258 55.9001C31.1691 55.3838 30.0271 54.6269 29.0652 53.6727C28.1033 52.7185 27.3402 51.5856 26.8195 50.3388C26.2988 49.092 26.0307 47.7556 26.0306 46.406C26.0304 45.0564 26.2982 43.72 26.8186 42.4731C27.3389 41.2261 28.1018 40.0931 29.0635 39.1387C30.0252 38.1842 31.1669 37.4271 32.4236 36.9105C33.6802 36.3939 35.027 36.1279 36.3873 36.1277C39.1343 36.1274 41.769 37.2099 43.7118 39.137C45.6545 41.0641 46.746 43.678 46.7464 46.4036C46.7467 49.1293 45.6557 51.7434 43.7135 53.671C41.7712 55.5985 39.1368 56.6816 36.3897 56.6819V56.6819Z" fill="#B8B8B8"/>
<path d="M92.4214 72.8105V20.0029H102.19V72.8105H92.4214V72.8105ZM186.113 36.9237H195.44V41.303C197.424 37.802 202.054 35.9034 206.019 35.9034C210.942 35.9034 214.907 38.0209 216.743 41.883C219.605 37.5036 223.427 35.9034 228.202 35.9034C234.886 35.9034 241.274 39.9146 241.274 49.542V72.8105H231.801V51.5128C231.801 47.6459 229.89 44.7271 225.408 44.7271C221.22 44.7271 218.722 47.9395 218.722 51.8063V72.8129H209.031V51.5128C209.031 47.6459 207.047 44.7271 202.638 44.7271C198.377 44.7271 195.879 47.8673 195.879 51.8063V72.8129H186.113V36.9237V36.9237ZM124.266 73.85C113.261 73.85 105.292 65.7481 105.292 54.8671C105.292 44.1593 113.237 35.8673 124.266 35.8673C135.349 35.8673 143.241 44.2363 143.241 54.8671C143.241 65.6711 135.267 73.85 124.266 73.85ZM124.266 44.6501C121.537 44.654 118.92 45.7321 116.99 47.648C115.061 49.5639 113.976 52.161 113.974 54.8695C113.976 57.578 115.061 60.1751 116.99 62.091C118.92 64.0069 121.537 65.085 124.266 65.0888C126.996 65.0844 129.612 64.006 131.541 62.0901C133.47 60.1743 134.554 57.5776 134.556 54.8695C134.554 52.1614 133.47 49.5646 131.541 47.6488C129.612 45.733 126.996 44.6546 124.266 44.6501V44.6501ZM164.105 73.85C153.099 73.85 145.13 65.7481 145.13 54.8671C145.13 44.1593 153.075 35.8673 164.105 35.8673C175.188 35.8673 183.079 44.2363 183.079 54.8671C183.079 65.6711 175.1 73.85 164.105 73.85ZM164.105 44.5274C161.343 44.5319 158.697 45.6226 156.745 47.5605C154.793 49.4983 153.696 52.1251 153.693 54.8647C153.696 57.6042 154.793 60.231 156.745 62.1688C158.697 64.1067 161.343 65.1975 164.105 65.2019C166.866 65.1975 169.512 64.1067 171.464 62.1688C173.416 60.231 174.513 57.6042 174.516 54.8647C174.513 52.1251 173.416 49.4983 171.464 47.5605C169.512 45.6226 166.866 44.5319 164.105 44.5274V44.5274Z" fill="#B8B8B8"/>
</svg>
