<svg width="198" height="99" viewBox="0 0 198 99" fill="none" xmlns="http://www.w3.org/2000/svg">
<path fill-rule="evenodd" clip-rule="evenodd" d="M84.4808 31.4117C88.0984 30.7244 91.7161 30.0008 95.2976 29.3135C95.2614 45.3398 95.2614 61.3298 95.2976 77.3199C91.7161 76.5964 88.0984 75.8367 84.517 75.1493C84.4084 73.7384 84.4808 72.3276 84.4808 70.9167C84.4446 57.7845 84.4446 44.6162 84.4808 31.4117ZM171.992 38.5024C168.953 38.5747 165.842 39.5153 163.491 41.4689C161.537 43.0606 160.126 45.2312 159.33 47.6189C158.462 50.1874 158.281 52.973 158.607 55.6863C158.969 58.7975 160.199 61.8725 162.369 64.1516C164.069 65.9605 166.385 67.2266 168.809 67.7693C171.847 68.4567 175.14 68.3481 177.997 67.0096C180.096 66.069 181.832 64.4049 183.062 62.4513C184.437 60.2446 185.124 57.676 185.341 55.0713C185.595 52.141 185.269 49.1383 184.184 46.3889C183.243 43.9289 181.543 41.7221 179.264 40.3112C177.093 38.9727 174.525 38.3938 171.992 38.5024ZM170.4 28.4091C175.646 28.0473 181.145 29.0241 185.667 31.8097C188.199 33.3653 190.37 35.4274 192.07 37.8512C193.553 40.0218 194.639 42.4456 195.398 44.978C196.194 47.6912 196.484 50.5492 196.52 53.371C196.52 58.5442 195.326 63.826 192.468 68.2034C189.972 72.1105 186.173 75.1493 181.832 76.7411C179.01 77.7902 176.044 78.2967 173.041 78.3691C167.398 78.4776 161.573 77.1029 156.979 73.7746C153.072 70.989 150.214 66.9011 148.767 62.3428C147.754 59.304 147.356 56.0481 147.392 52.8283C147.428 47.2209 149.056 41.505 152.565 37.0915C155.423 33.4376 159.511 30.8329 163.961 29.5306C166.023 28.8794 168.194 28.5176 170.4 28.4091ZM15.311 30.5435C17.9157 29.0241 20.9184 28.3005 23.921 28.3367C28.6963 28.5176 33.2908 30.9776 36.0764 34.8847C37.4873 32.9673 39.4408 31.4841 41.5391 30.435C46.2782 28.1558 52.0303 27.7941 56.9141 29.7838C59.1933 30.7244 61.2554 32.1715 62.8471 34.0526C64.4751 35.97 65.5604 38.2853 66.2116 40.673C66.8989 43.1692 67.0798 45.7739 67.0074 48.3424C67.0074 58.0016 67.0074 67.6969 67.0074 77.3561C63.426 76.6326 59.8083 75.8729 56.1906 75.1855C56.1544 65.9243 56.1906 56.6631 56.1544 47.4018C56.1906 45.2674 55.4309 43.0968 53.9115 41.6136C52.2835 39.9494 49.8959 39.1535 47.5806 39.1897C45.5185 39.1535 43.4202 39.7685 41.7923 41.0709C39.9473 42.518 38.9705 44.9056 38.9705 47.2571C38.9705 57.2781 38.9705 67.3352 38.9705 77.3561C35.3528 76.6326 31.7352 75.8729 28.1175 75.1855C28.0813 72.219 28.1175 69.2164 28.0813 66.2137C28.0813 59.9913 28.0813 53.7689 28.0813 47.5104C28.1537 45.3759 27.4302 43.1692 25.9107 41.6497C24.5722 40.275 22.7272 39.4791 20.8822 39.2621C19.1095 39.0812 17.3007 39.2259 15.6366 39.9133C13.9001 40.6368 12.4168 42.0115 11.6209 43.7118C11.0783 44.8695 10.8251 46.1356 10.8251 47.4018C10.8251 55.216 10.8251 63.0302 10.8251 70.8443C10.8612 73.0149 10.7889 75.1855 10.8612 77.3561C7.24357 76.6688 3.66207 75.8729 0.0805833 75.2217C0.00822992 73.9555 0.11676 72.6532 0.00822992 71.4231C0.0444066 69.9761 0.0444066 68.529 0.00822992 67.0819C0.11676 65.7434 0.00822992 64.3687 0.0444066 63.0302C0.0444066 59.1954 0.0444066 55.3607 0.0444066 51.526C0.00822992 49.1383 0.0805833 46.7145 0.00822992 44.3268C0.0444066 42.9883 0.0444066 41.6136 0.00822992 40.275C0.0805833 37.598 0.0444066 34.9571 0.0444066 32.28C0.0805833 32.0267 -0.136477 31.6288 0.152937 31.4841C3.73443 30.7967 7.27974 30.1094 10.8612 29.422C10.8251 31.05 10.8612 32.6779 10.8612 34.3059C12.1274 32.7865 13.6107 31.4841 15.311 30.5435ZM133.319 29.0603C135.056 28.7708 136.828 28.4814 138.565 28.192C138.565 31.9544 138.565 35.7168 138.565 39.4791C136.828 39.8047 135.092 40.1303 133.355 40.4197C130.751 40.8539 128.038 41.6136 126.084 43.4947C124.492 44.978 123.732 47.1486 123.588 49.283C123.479 50.8024 123.552 52.3219 123.552 53.8775C123.552 61.6916 123.552 69.5058 123.552 77.3199C120.549 76.7049 117.546 76.0899 114.507 75.5111C113.929 75.4026 113.386 75.2579 112.771 75.1855C112.626 74.3535 112.735 73.5214 112.699 72.6893C112.699 64.3687 112.699 56.0842 112.699 47.7636C112.771 45.1589 113.205 42.518 114.29 40.0941C115.339 37.6703 117.184 35.6082 119.355 34.0888C122.249 32.0991 125.614 30.9053 129.014 30.0008C130.461 29.6753 131.836 29.2773 133.319 29.0603ZM88.822 8.33102C90.5585 8.11396 92.4396 8.29484 93.9229 9.34397C95.6232 10.4654 96.5638 12.4913 96.6 14.4811C96.7085 15.0599 96.5638 15.6749 96.5638 16.2537C96.3829 18.0625 95.4423 19.799 93.8867 20.812C92.2588 21.8973 90.1605 22.0782 88.2432 21.6802C86.6514 21.3546 85.1681 20.3417 84.2637 18.9308C83.2146 17.2667 83.0337 15.1684 83.4317 13.251C83.7934 11.4422 85.0234 9.77809 86.6876 8.9822C87.3749 8.65661 88.0984 8.43955 88.822 8.33102Z" fill="#B8B8B8"/>
</svg>
