<svg width="388" height="99" viewBox="0 0 388 99" fill="none" xmlns="http://www.w3.org/2000/svg">
<g clip-path="url(#clip0_1859_1422)">
<path d="M112.688 43.7283V63.5547H117.634C118.897 63.5359 120.143 63.2644 121.298 62.7561C122.454 62.2477 123.495 61.513 124.362 60.5952C126.14 58.7138 127.113 56.2129 127.073 53.6251C127.111 52.3398 126.894 51.0597 126.436 49.8583C125.977 48.657 125.285 47.5581 124.4 46.6248C123.53 45.7057 122.481 44.9744 121.317 44.4759C120.154 43.9773 118.9 43.722 117.634 43.7258H112.69L112.688 43.7283ZM117.634 37.5119C126.854 37.5119 133.829 44.6509 133.829 53.6251C133.829 62.5993 126.854 69.7786 117.634 69.7786H106.725C106.621 69.7773 106.518 69.7555 106.422 69.7145C106.327 69.6735 106.24 69.6141 106.168 69.5397C106.095 69.4652 106.038 69.3772 105.999 69.2807C105.961 69.1841 105.942 69.0809 105.943 68.977V38.3463C105.943 37.9027 106.293 37.5422 106.725 37.5422L117.634 37.5119V37.5119ZM157.593 64.2454C161.78 64.258 165.561 61.6842 167.173 57.724C167.963 55.7891 168.174 53.6668 167.781 51.6144C167.387 49.5621 166.407 47.6677 164.958 46.1609C163.535 44.6789 161.695 43.6633 159.682 43.2483C157.669 42.8334 155.577 43.0385 153.683 43.8367C149.813 45.4702 147.286 49.3347 147.278 53.6251C147.278 59.4735 151.889 64.2177 157.595 64.2454H157.593ZM157.595 36.7809C167.299 36.7809 174.718 44.4241 174.718 53.6251C174.718 62.8262 167.299 70.4693 157.593 70.4693C147.889 70.4693 140.533 62.864 140.533 53.6251C140.533 44.3863 147.952 36.7809 157.593 36.7809H157.595ZM198.29 64.2454C203.998 64.2303 208.617 59.481 208.612 53.6327C208.604 47.7793 203.976 43.0401 198.27 43.0376C192.559 43.0376 187.928 47.7743 187.92 53.6251C187.92 56.4434 189.012 59.1457 190.957 61.1372C191.909 62.1186 193.048 62.8993 194.307 63.4332C195.566 63.9671 196.92 64.2432 198.288 64.2454H198.29ZM198.288 36.7809C207.961 36.7809 215.38 44.3863 215.38 53.6251C215.38 62.864 207.931 70.4693 198.288 70.4693C188.647 70.4693 181.165 62.864 181.165 53.6251C181.165 44.3863 188.584 36.7809 198.288 36.7809ZM238.006 43.7283H231.032V52.2613H238.006C238.557 52.2858 239.107 52.197 239.623 52.0006C240.138 51.8042 240.608 51.5043 241.003 51.1194C241.81 50.3379 242.269 49.254 242.279 48.1146C242.3 47.5365 242.203 46.9603 241.995 46.4206C241.787 45.8808 241.472 45.3886 241.068 44.9736C240.673 44.5652 240.196 44.244 239.668 44.0309C239.141 43.8177 238.575 43.7172 238.006 43.7359V43.7283ZM224.284 38.3463C224.284 37.9027 224.637 37.5422 225.068 37.5422H238.2C244.461 37.5422 248.991 42.2436 248.991 48.1473C249.039 52.1403 246.857 55.8082 243.374 57.5954L249.43 68.5686C249.514 68.6947 249.561 68.8416 249.567 68.9929C249.572 69.1442 249.535 69.294 249.461 69.4257C249.388 69.5554 249.279 69.6613 249.148 69.7311C249.016 69.8008 248.867 69.8313 248.719 69.819H243.404C243.257 69.821 243.112 69.7814 242.986 69.7047C242.86 69.628 242.758 69.5173 242.693 69.3854L236.856 58.5256H231.006V68.9518C231.008 69.0559 230.989 69.1594 230.951 69.2562C230.912 69.3531 230.855 69.4414 230.782 69.5161C230.71 69.5908 230.623 69.6504 230.527 69.6916C230.432 69.7328 230.329 69.7546 230.224 69.7559H225.104C225 69.7546 224.897 69.7328 224.801 69.6916C224.705 69.6504 224.618 69.5908 224.546 69.5161C224.473 69.4414 224.416 69.3531 224.378 69.2562C224.339 69.1594 224.32 69.0559 224.322 68.9518L224.287 38.3489L224.284 38.3463ZM266.578 43.8796V63.7085H271.522C272.784 63.6914 274.03 63.4215 275.186 62.9149C276.342 62.4084 277.384 61.6753 278.252 60.7591C280.031 58.8798 281.006 56.3808 280.969 53.794C281.009 52.5071 280.794 51.2249 280.337 50.0213C279.879 48.8177 279.188 47.7165 278.302 46.7811C277.431 45.8605 276.38 45.1283 275.214 44.6297C274.048 44.131 272.793 43.8766 271.525 43.8821L266.578 43.8796V43.8796ZM271.522 37.6556C280.742 37.6556 287.716 44.8022 287.716 53.794C287.716 62.7858 280.742 69.9324 271.522 69.9324H260.645C260.541 69.9311 260.438 69.9092 260.342 69.8681C260.247 69.8269 260.16 69.7673 260.087 69.6926C260.015 69.6178 259.957 69.5295 259.919 69.4327C259.881 69.3359 259.862 69.2324 259.863 69.1282V38.5001C259.863 38.0539 260.214 37.6934 260.645 37.6934L271.525 37.6556H271.522ZM308.289 45.5408L304.463 56.1434H312.108L308.289 45.5408V45.5408ZM302.218 62.1355L299.713 69.1938C299.663 69.3599 299.559 69.5045 299.417 69.6049C299.276 69.7053 299.105 69.7558 298.931 69.7484H293.498C293.359 69.7613 293.22 69.7367 293.094 69.6773C292.969 69.6178 292.862 69.5257 292.784 69.4106C292.704 69.2941 292.657 69.1591 292.645 69.0187C292.633 68.8783 292.657 68.7371 292.716 68.609L304.455 38.0086C304.51 37.8472 304.616 37.7081 304.757 37.6126C304.898 37.517 305.067 37.4702 305.237 37.4792H311.316C311.487 37.4696 311.656 37.5162 311.798 37.6118C311.94 37.7074 312.046 37.8467 312.101 38.0086L323.84 68.609C323.899 68.7374 323.923 68.8786 323.91 69.019C323.898 69.1595 323.85 69.2943 323.77 69.4106C323.692 69.5252 323.584 69.6169 323.459 69.6758C323.333 69.7348 323.194 69.759 323.056 69.7458H317.625C317.452 69.7533 317.281 69.7028 317.139 69.6024C316.997 69.502 316.893 69.3573 316.843 69.1913L314.338 62.1329H302.218V62.1355ZM330.139 46.229C330.139 41.1621 334.412 36.7809 341.16 36.7809C344.793 36.6998 348.311 38.0582 350.947 40.5596C351.027 40.6355 351.091 40.7269 351.135 40.8284C351.178 40.9298 351.201 41.0391 351.201 41.1495C351.201 41.2599 351.178 41.3692 351.135 41.4707C351.091 41.5721 351.027 41.6635 350.947 41.7394L347.937 44.8022C347.865 44.8766 347.779 44.9358 347.684 44.9762C347.589 45.0166 347.486 45.0374 347.382 45.0374C347.279 45.0374 347.176 45.0166 347.081 44.9762C346.986 44.9358 346.9 44.8766 346.828 44.8022C345.41 43.4745 343.549 42.7223 341.606 42.6923C338.907 42.6923 336.912 44.298 336.912 46.1508C336.912 52.1403 352.861 48.6843 352.861 60.2095C352.854 66.0503 348.548 70.4693 340.935 70.4693C338.821 70.491 336.724 70.0875 334.77 69.2828C332.815 68.4782 331.042 67.2889 329.556 65.7856C329.476 65.7098 329.412 65.6183 329.368 65.5169C329.325 65.4155 329.302 65.3062 329.302 65.1957C329.302 65.0853 329.325 64.976 329.368 64.8746C329.412 64.7732 329.476 64.6817 329.556 64.6059L332.467 61.6212C332.54 61.5432 332.627 61.4809 332.725 61.4384C332.823 61.3958 332.928 61.3738 333.035 61.3738C333.141 61.3738 333.247 61.3958 333.344 61.4384C333.442 61.4809 333.53 61.5432 333.602 61.6212C335.434 63.436 337.902 64.4667 340.481 64.495C343.854 64.495 346.076 62.6497 346.076 60.3381C346.076 54.3461 330.134 57.8047 330.134 46.2769L330.139 46.229ZM381.784 38.306V50.4161H368.284V38.306C368.285 38.2021 368.266 38.0989 368.227 38.0023C368.189 37.9058 368.131 37.8178 368.059 37.7433C367.986 37.6689 367.9 37.6095 367.804 37.5685C367.708 37.5275 367.606 37.5057 367.502 37.5044H362.381C362.277 37.5057 362.174 37.5275 362.079 37.5685C361.983 37.6095 361.897 37.6689 361.824 37.7433C361.751 37.8178 361.694 37.9058 361.655 38.0023C361.617 38.0989 361.598 38.2021 361.599 38.306V68.9014C361.599 69.345 361.952 69.7055 362.381 69.7055H367.502C367.93 69.7055 368.284 69.345 368.284 68.9014V56.5997H381.774V68.9014C381.774 69.345 382.127 69.7055 382.556 69.7055H387.676C388.108 69.7055 388.458 69.345 388.458 68.9014V38.306C388.46 38.2021 388.44 38.0989 388.402 38.0023C388.363 37.9058 388.306 37.8178 388.233 37.7433C388.161 37.6689 388.074 37.6095 387.979 37.5685C387.883 37.5275 387.78 37.5057 387.676 37.5044H382.556C382.347 37.5097 382.15 37.5968 382.005 37.7468C381.861 37.8969 381.781 38.0978 381.784 38.306V38.306ZM77.1994 41.5881C73.6478 35.0088 66.6984 30.9124 59.1411 30.9376H1.96205C1.57591 30.9392 1.19876 31.0543 0.877602 31.2685C0.556445 31.4828 0.305478 31.7868 0.155973 32.1426C0.00865216 32.4961 -0.0297166 32.8855 0.0457807 33.261C0.121278 33.6364 0.307204 33.9808 0.579746 34.25L13.0356 46.6021C14.1354 47.6961 15.6338 48.3087 17.1927 48.3087H57.5015C60.3746 48.2784 62.723 50.5522 62.7533 53.3831C62.7836 56.214 60.4806 58.5332 57.6075 58.5609H29.8176C29.4311 58.5611 29.0533 58.6749 28.7312 58.8883C28.4091 59.1017 28.157 59.4052 28.0064 59.7608C27.8577 60.1147 27.8183 60.505 27.8934 60.8815C27.9685 61.258 28.1546 61.6034 28.4277 61.8733L40.8912 74.2355C41.9978 75.3289 43.4919 75.9414 45.0482 75.9395H57.6176C73.9707 75.9395 86.3358 58.697 77.1994 41.5806" fill="#B8B8B8"/>
</g>
<defs>
<clipPath id="clip0_1859_1422">
<rect width="388" height="99" fill="white"/>
</clipPath>
</defs>
</svg>
