<svg width="266" height="99" viewBox="0 0 266 99" fill="none" xmlns="http://www.w3.org/2000/svg">
<path d="M92.658 71.7233V41.7035H93.1927L115.039 71.7233H121.914V27.6388H114.275V57.583H113.74L91.8941 27.6388H85.0194V71.7233H92.658ZM143.531 72.4038C153.614 72.4038 159.801 65.9008 159.801 55.012C159.801 44.1988 153.614 37.6202 143.531 37.6202C133.524 37.6202 127.261 44.1988 127.261 55.012C127.337 65.9008 133.448 72.4038 143.531 72.4038ZM143.531 66.052C138.184 66.052 135.129 62.0443 135.129 55.012C135.129 48.0553 138.184 43.972 143.531 43.972C148.878 43.972 151.933 48.0553 151.933 55.012C151.933 62.0443 148.878 66.052 143.531 66.052ZM166.752 30.1341V38.5276H161.405V44.5769H166.752V62.8005C166.752 69.3035 169.808 71.8745 177.599 71.8745C179.05 71.8745 180.502 71.7233 181.648 71.4964V65.5983C180.731 65.6739 180.12 65.7496 179.05 65.7496C175.842 65.7496 174.391 64.3128 174.391 60.9857V44.5769H181.648V38.5276H174.391V30.1341H166.752ZM186.231 71.7233H193.869V38.3007H186.231V71.7233ZM190.05 32.7807C192.571 32.7807 194.633 30.7391 194.633 28.2437C194.633 25.6727 192.571 23.6311 190.05 23.6311C187.529 23.6311 185.467 25.6727 185.467 28.2437C185.467 30.7391 187.529 32.7807 190.05 32.7807ZM214.799 72.4038C224.882 72.4038 231.069 65.9008 231.069 55.012C231.069 44.1988 224.882 37.6202 214.799 37.6202C204.792 37.6202 198.529 44.1988 198.529 55.012C198.529 65.9008 204.64 72.4038 214.799 72.4038ZM214.799 66.052C209.452 66.052 206.397 62.0443 206.397 55.012C206.397 48.0553 209.452 43.972 214.799 43.972C220.07 43.972 223.201 48.0553 223.201 55.012C223.125 62.0443 220.07 66.052 214.799 66.052ZM235.576 71.7233H243.215V52.2898C243.215 47.3747 246.117 44.2744 250.624 44.2744C255.284 44.2744 257.422 46.8454 257.422 51.9117V71.7233H265.061V50.0969C265.061 42.0816 260.936 37.6202 253.45 37.6202C248.409 37.6202 245.048 39.8887 243.444 43.6695H242.909V38.3007H235.5C235.576 38.3007 235.576 71.7233 235.576 71.7233Z" fill="#B8B8B8"/>
<path fill-rule="evenodd" clip-rule="evenodd" d="M11.7783 24.8172C14.0016 26.6111 14.8057 26.4695 18.9683 26.1863L58.1822 23.8258C59.0336 23.8258 58.3241 22.976 58.0403 22.8816L51.5125 18.2079C50.2827 17.2637 48.5798 16.1306 45.4105 16.4139L7.47381 19.1992C6.10204 19.3409 5.81822 20.049 6.38585 20.5683L11.7783 24.8172ZM14.1435 33.9286V75.0953C14.1435 77.3141 15.2314 78.1167 17.7385 77.9751L60.8311 75.4729C63.3382 75.3313 63.622 73.8206 63.622 72.0267V31.1432C63.622 29.3493 62.9124 28.3579 61.3988 28.4995L16.3667 31.1432C14.7111 31.2849 14.1435 32.1346 14.1435 33.9286ZM56.6685 36.1475C56.9523 37.3749 56.6685 38.6496 55.4386 38.7912L53.3573 39.2161V69.619C51.5598 70.5632 49.9042 71.1297 48.4852 71.1297C46.2619 71.1297 45.6943 70.4215 44.0387 68.3443L30.4629 47.0528V67.6362L34.7674 68.5804C34.7674 68.5804 34.7674 71.0825 31.3143 71.0825L21.7592 71.649C21.4754 71.0825 21.7592 69.7134 22.7053 69.4301L25.2123 68.722V41.5293L21.7592 41.2461C21.4754 40.0186 22.1849 38.2247 24.1243 38.083L34.389 37.3749L48.5325 58.9024V39.877L44.9375 39.4521C44.6537 37.9414 45.7889 36.8084 47.1607 36.6668L56.6685 36.1475ZM4.30454 15.4225L43.8022 12.5427C48.6271 12.1178 49.9042 12.4011 52.9316 14.6199L65.5141 23.4481C67.5954 24.9588 68.3049 25.3837 68.3049 27.036V75.5202C68.3049 78.5416 67.217 80.3355 63.3382 80.6188L17.502 83.4041C14.5692 83.5458 13.1974 83.1209 11.6837 81.1853L2.36513 69.1469C0.709539 66.928 0 65.2757 0 63.3401V20.2379C0 17.7358 1.13526 15.7057 4.30454 15.4225Z" fill="#B8B8B8"/>
</svg>
