<svg width="16" height="16" viewBox="0 0 16 16" fill="none" xmlns="http://www.w3.org/2000/svg">
<g id="copy-03" opacity="0.7">
<g id="Solid">
<path fill-rule="evenodd" clip-rule="evenodd" d="M3.4413 4.66669H8.55935C8.91078 4.66668 9.21397 4.66667 9.46368 4.68707C9.72724 4.7086 9.98939 4.75615 10.2416 4.88468C10.618 5.07642 10.9239 5.38238 11.1157 5.75871C11.2442 6.01096 11.2917 6.27311 11.3133 6.53667C11.3337 6.78638 11.3337 7.08954 11.3337 7.44096V12.5591C11.3337 12.9105 11.3337 13.2137 11.3133 13.4634C11.2917 13.7269 11.2442 13.9891 11.1157 14.2413C10.9239 14.6177 10.618 14.9236 10.2416 15.1154C9.98939 15.2439 9.72724 15.2914 9.46368 15.313C9.21398 15.3334 8.91083 15.3334 8.55942 15.3334H3.44131C3.08991 15.3334 2.78667 15.3334 2.53697 15.313C2.27341 15.2914 2.01126 15.2439 1.75901 15.1154C1.38269 14.9236 1.07673 14.6177 0.884979 14.2413C0.756449 13.9891 0.708905 13.7269 0.687371 13.4634C0.666969 13.2137 0.66698 12.9105 0.666993 12.559V7.44101C0.66698 7.08957 0.666969 6.78639 0.687371 6.53667C0.708905 6.27311 0.756449 6.01096 0.884979 5.75871C1.07673 5.38238 1.38269 5.07642 1.75901 4.88468C2.01126 4.75615 2.27341 4.7086 2.53697 4.68707C2.78668 4.66667 3.08987 4.66668 3.4413 4.66669Z" fill="white"/>
<path d="M12.5594 0.666688H7.4413C7.08988 0.666676 6.78668 0.666666 6.53698 0.687068C6.27341 0.708602 6.01127 0.756146 5.75901 0.884676C5.38269 1.07642 5.07673 1.38238 4.88498 1.75871C4.75645 2.01096 4.70891 2.27311 4.68738 2.53667C4.66909 2.76053 4.6672 3.02734 4.66701 3.33337L8.58757 3.33336C8.91333 3.33329 9.26653 3.3332 9.57225 3.35818C9.91827 3.38645 10.3754 3.45642 10.847 3.69668C11.4742 4.01626 11.9841 4.5262 12.3037 5.1534C12.5439 5.62495 12.6139 6.08209 12.6422 6.42811C12.6672 6.73384 12.6671 7.08704 12.667 7.4128L12.667 11.3333C12.973 11.3332 13.2398 11.3313 13.4637 11.313C13.7272 11.2914 13.9894 11.2439 14.2416 11.1154C14.618 10.9236 14.9239 10.6177 15.1157 10.2413C15.2442 9.98908 15.2917 9.72694 15.3133 9.46338C15.3337 9.21368 15.3337 8.91052 15.3337 8.55912V3.44101C15.3337 3.0896 15.3337 2.78637 15.3133 2.53667C15.2917 2.27311 15.2442 2.01096 15.1157 1.75871C14.9239 1.38238 14.618 1.07642 14.2416 0.884676C13.9894 0.756146 13.7272 0.708602 13.4637 0.687068C13.214 0.666666 12.9108 0.666676 12.5594 0.666688Z" fill="white"/>
</g>
</g>
</svg>
