<svg width="500" height="50" viewBox="0 0 500 50" fill="none" xmlns="http://www.w3.org/2000/svg">
<path d="M126.935 11.4986H134.963L145.107 33.2941L154.601 11.4986H162.303L148.688 40.1593C145.758 46.2622 142.178 49.4219 135.723 49.4219C133.499 49.4219 130.732 49.3129 128.291 48.1687L131.654 41.3035C133.119 42.0116 134.53 42.3387 136.537 42.3387C138.761 42.3387 140.442 41.1945 141.311 39.5594L126.935 11.4986Z" fill="black"/>
<path d="M176.351 40.9199V10.843H162.735V3.43199H197.29V10.843H183.674V40.9199H176.351Z" fill="black"/>
<path d="M222.834 22.2308C222.834 19.0704 221.695 17.8172 218.819 17.8172H209.11C206.234 17.8172 205.096 19.0704 205.096 21.8497V24.1922H222.834V22.2308ZM209.11 40.9199C202.058 40.9199 197.881 37.9226 197.881 30.5672V21.8497C197.881 14.4936 202.058 11.4963 209.11 11.4963H218.819C225.926 11.4963 230.102 14.4936 230.102 21.8497V28.7697H205.096V30.5672C205.096 33.5638 206.614 34.599 209.11 34.599H229.506L228.584 40.9199H209.11Z" fill="black"/>
<path d="M246.212 40.9199C239.16 40.9199 234.984 37.9226 234.984 30.5672V21.8497C234.984 14.4936 239.16 11.4963 246.212 11.4963H258.255C263.028 11.4963 265.198 14.4394 265.904 16.2369L261.943 20.3784C261.292 19.0162 260.316 17.8172 257.875 17.8172H246.212C243.716 17.8172 242.198 19.0704 242.198 21.8497V30.5672C242.198 33.3458 243.716 34.599 246.212 34.599H258.146C260.588 34.599 261.618 33.4007 262.215 32.0933L266.229 36.18C265.47 37.9775 263.355 40.9199 258.526 40.9199H246.212Z" fill="black"/>
<path d="M294.482 40.9199V22.3398C294.482 19.3433 293.505 17.8172 290.467 17.8172H281.029C278.914 17.8172 277.937 18.6885 277.394 20.6506V40.9199H270.18V2.45166L277.394 -0.000610352V15.7468C278.968 12.6412 280.975 11.4963 284.392 11.4963H290.467C298.985 11.4963 301.751 15.3108 301.751 23.266V40.9199H294.482Z" fill="black"/>
<path d="M331.148 40.9199V22.3398C331.148 19.3433 330.171 17.8172 327.134 17.8172H317.695C315.58 17.8172 314.603 18.6885 314.061 20.6506V40.9199H306.846V11.4963H313.79V15.7468C315.363 12.6412 317.316 11.4963 320.733 11.4963H327.134C335.651 11.4963 338.417 15.3107 338.417 23.266V40.9199H331.148Z" fill="black"/>
<path d="M368.413 21.8497C368.413 18.8524 367.165 17.8172 364.398 17.8172H354.689C351.976 17.8172 350.675 18.8524 350.675 21.8497V30.5672C350.675 33.5646 351.976 34.5997 354.689 34.5997H364.398C367.165 34.5997 368.413 33.5646 368.413 30.5672V21.8497ZM354.689 40.9199C346.823 40.9199 343.46 37.8685 343.46 30.5672V21.8497C343.46 14.5484 346.823 11.497 354.689 11.497H364.398C372.318 11.497 375.681 14.5484 375.681 21.8497V30.5672C375.681 37.8685 372.318 40.9199 364.398 40.9199H354.689Z" fill="black"/>
<path d="M380.778 40.9199V2.45166L387.992 -0.000610352V40.9199H380.778Z" fill="black"/>
<path d="M418.098 21.8497C418.098 18.8524 416.85 17.8172 414.083 17.8172H404.374C401.661 17.8172 400.36 18.8524 400.36 21.8497V30.5672C400.36 33.5646 401.661 34.5997 404.374 34.5997H414.083C416.85 34.5997 418.098 33.5646 418.098 30.5672V21.8497ZM404.374 40.9199C396.508 40.9199 393.145 37.8685 393.145 30.5672V21.8497C393.145 14.5484 396.508 11.497 404.374 11.497H414.083C422.003 11.497 425.366 14.5484 425.366 21.8497V30.5672C425.366 37.8685 422.003 40.9199 414.083 40.9199H404.374Z" fill="black"/>
<path d="M454.869 20.653C454.273 18.6367 453.134 17.8737 450.801 17.8737H441.634C438.216 17.8737 437.131 19.0728 437.131 23.7044V25.6658C437.131 30.7328 438.324 31.4958 441.579 31.4958H450.313C453.025 31.4958 454.273 30.9508 454.869 28.7165V20.653ZM454.869 32.9129C452.971 36.6177 450.909 37.2717 446.19 37.2717H441.145C432.683 37.2717 429.916 33.8384 429.916 26.1018V23.2684C429.916 15.3131 432.683 11.4986 441.145 11.4986H447.438C449.771 11.4986 453.785 12.2076 455.141 15.8033V11.4986H462.138V36.0726C462.138 43.2107 459.86 49.4219 448.251 49.4219C445.648 49.4219 442.989 49.0407 440.549 48.2235L441.417 42.4477C443.749 43.1566 445.594 43.4287 447.981 43.4287C453.351 43.4287 454.869 40.5953 454.869 36.0726V32.9129Z" fill="black"/>
<path d="M464.632 11.4986H472.66L482.804 33.2941L492.297 11.4986H500L486.384 40.1593C483.455 46.2622 479.875 49.4219 473.419 49.4219C471.196 49.4219 468.43 49.3129 465.988 48.1687L469.351 41.3035C470.816 42.0116 472.226 42.3387 474.234 42.3387C476.457 42.3387 478.139 41.1945 479.007 39.5594L464.632 11.4986Z" fill="black"/>
<path d="M39.8955 15.244L36.221 26.6809H16.8035L15.6702 30.2116L12.0103 41.6484H0L3.6599 30.2116L4.79247 26.6809L6.51863 21.3089C7.68033 17.6941 11.03 15.244 14.8115 15.244H39.8955Z" fill="black"/>
<path d="M76.5093 0.277245L67.1407 29.5078C64.8216 36.7432 58.1187 41.6484 50.5513 41.6484H15.9763L19.6362 30.2116H48.5505C52.3335 30.2116 55.6846 27.7593 56.8449 24.143L64.4982 0.277245H76.5093Z" fill="black"/>
<path d="M60.5467 0.283098L56.8723 11.72L55.7535 15.2499L54.0281 20.6227C52.8671 24.2374 49.5168 26.6875 45.7352 26.6875H40.1846L43.8445 15.2499L44.9778 11.72L48.6377 0.283098H60.5467Z" fill="black"/>
<path d="M44.6892 0.272099L41.0147 11.709H9.58618L11.3123 6.33695C12.474 2.72218 15.8237 0.272099 19.6052 0.272099H44.6892Z" fill="black"/>
<path d="M97.9721 25.9904V40.9199H90.6487V3.43272H125.691V10.843H97.9721V19.4515H125.095V25.9904H97.9721Z" fill="black"/>
</svg>
